# xmcd
#
# Track frame offsets: 
#        150
#        31110
#        61431
#        76411
#        125925
#        137856
#        169220
#        201390
#        225483
#        258896
#        271696
#
# Disc length: 3823 seconds
#
# Revision: 3
# Processed by: cddbd v1.5.2PL0 Copyright (c) Steve Scherf et al.
# Submitted via: ExactAudioCopy v0.95b4
#
DISCID=990eed0b
DTITLE=Various Artist - Mellow Tone CD-1
DYEAR=2000
DGENRE=Jazz
TTITLE0=Dexter Gordon - Until The real Thing Comes Along
TTITLE1=Benny Green - Me And My Baby
TTITLE2=Dinah Shore - The man I Love
TTITLE3=Cannonball Adderley - Autumn Leaves
TTITLE4=George Shearing Trio - What's New
TTITLE5=Paul Chambers - John Paul Jones
TTITLE6=Lee Morgan - I Remember Clifford
TTITLE7=Louis Smith - Stardust
TTITLE8=Ike Quebec - Nancy
TTITLE9=Coleman Hawkins - Someone To Watch Over Me
TTITLE10=Joe Pass - Django
EXTD=YEAR: 2000
EXTT0=
EXTT1=
EXTT2=
EXTT3=
EXTT4=
EXTT5=
EXTT6=
EXTT7=
EXTT8=
EXTT9=
EXTT10=
PLAYORDER=
